# xmcd CD database file generated by Grip 3.2.0
# 
# Track frame offsets:
#       150
#       16922
#       44741
#       62709
#       89499
#       118311
#       130562
#       149159
#       167621
#       188172
#       205643
#       223206
#       236844
#       249681
#       272551
#       289346
#       303260
# 
# Disc length: 4273 seconds
# 
# Revision: 2
# Processed by: cddbd v1.5.1PL0 Copyright (c) Steve Scherf et al.
# Submitted via: Grip 3.2.0
# 
DISCID=0c10af11
DTITLE=Rob Tognoni - Shakin' The Devil's Hand
DYEAR=2005
DGENRE=Blues
TTITLE0=Baby Please Don't Go
TTITLE1=Crossword Blues
TTITLE2=The Sinner
TTITLE3=Roosevelt and Ira Lee
TTITLE4=Product Of A Southern Land
TTITLE5=Guitar Boogie ReFried
TTITLE6=Dirty Occupation
TTITLE7=Mr. John Lee
TTITLE8=Shakin' The Devil's Hand
TTITLE9=Jim Beam Blues
TTITLE10=Lil' Melody
TTITLE11=Bad Girl
TTITLE12=Black Chair
TTITLE13=Comin' Home Tonight
TTITLE14=Drink Jack Boogie
TTITLE15=Keep Your Hands To Yourself
TTITLE16=Pourin' Down Me
EXTD=
EXTT0=
EXTT1=
EXTT2=
EXTT3=
EXTT4=
EXTT5=
EXTT6=
EXTT7=
EXTT8=
EXTT9=
EXTT10=
EXTT11=
EXTT12=
EXTT13=
EXTT14=
EXTT15=
EXTT16=
PLAYORDER=
